<?xml version="1.0" standalone="no"?><!DOCTYPE svg PUBLIC "-//W3C//DTD SVG 1.1//EN" "http://www.w3.org/Graphics/SVG/1.1/DTD/svg11.dtd"><svg t="1709622800450" class="icon" viewBox="0 0 1024 1024" version="1.1" xmlns="http://www.w3.org/2000/svg" p-id="4281" xmlns:xlink="http://www.w3.org/1999/xlink" width="200" height="200"><path d="M810.7 597.3v256H213.3v-256H512z" fill="#A9D8FF" p-id="4282"></path><path d="M512 128l170.7 138.7 170.6 138.6H170.7l170.6-138.6z" fill="#A9D8FF" p-id="4283"></path><path d="M768 469.3h42.7v384H768zM597.3 469.3H640v384h-42.7zM426.667 853.367h-42.7v-384h42.7zM256.033 853.367h-42.7v-384h42.7z" fill="#298DF7" p-id="4284"></path><path d="M128 853.3h768V896H128z" fill="#298DF7" p-id="4285"></path><path d="M294.4 469.3H174.9c-2.4 0-4.3-1.9-4.3-4.3v-34.1c0-2.4 1.9-4.3 4.3-4.3h119.5c2.4 0 4.3 1.9 4.3 4.3V465c0 2.4-1.9 4.3-4.3 4.3zM170.7 810.7h128v42.7h-128zM465.1 469.3H345.6c-2.4 0-4.3-1.9-4.3-4.3v-34.1c0-2.4 1.9-4.3 4.3-4.3h119.5c2.4 0 4.3 1.9 4.3 4.3V465c-0.1 2.4-2 4.3-4.3 4.3zM341.3 810.7h128v42.7h-128zM678.4 469.3H558.9c-2.4 0-4.3-1.9-4.3-4.3v-34.1c0-2.4 1.9-4.3 4.3-4.3h119.5c2.4 0 4.3 1.9 4.3 4.3V465c0 2.4-1.9 4.3-4.3 4.3zM554.7 810.7h128v42.7h-128zM849.1 469.3H729.6c-2.4 0-4.3-1.9-4.3-4.3v-34.1c0-2.4 1.9-4.3 4.3-4.3h119.5c2.4 0 4.3 1.9 4.3 4.3V465c-0.1 2.4-2 4.3-4.3 4.3zM725.3 810.7h128v42.7h-128z" fill="#3C99FE" p-id="4286"></path><path d="M512 234.7c23.6 0 42.7 19.1 42.7 42.7s-19.1 42.7-42.7 42.7-42.7-19.1-42.7-42.7 19.1-42.7 42.7-42.7z" fill="#A9D8FF" p-id="4287"></path></svg>